<?xml version="1.0" standalone="no"?>
<!DOCTYPE svg PUBLIC "-//W3C//DTD SVG 20010904//EN"
 "http://www.w3.org/TR/2001/REC-SVG-20010904/DTD/svg10.dtd">
<svg version="1.0" xmlns="http://www.w3.org/2000/svg"
 width="74.000000pt" height="74.000000pt" viewBox="0 0 74.000000 74.000000"
 preserveAspectRatio="xMidYMid meet">
<metadata>
Created by potrace 1.11, written by Peter Selinger 2001-2013
</metadata>
<g transform="translate(0.000000,74.000000) scale(0.100000,-0.100000)"
fill="#000000" stroke="none">
<path d="M22 713 c2 -13 12 -26 28 -33 21 -9 168 -23 223 -22 9 1 17 -5 17
-11 0 -7 4 -6 10 3 7 11 10 11 10 2 0 -7 6 -12 13 -10 6 1 35 -2 62 -7 55 -9
52 -8 113 -24 141 -37 133 -37 137 2 3 21 -3 25 -49 37 -28 8 -55 15 -61 16
-5 1 -30 7 -55 14 -25 7 -54 14 -65 15 -11 1 -38 5 -60 9 -93 14 -211 27 -287
30 -33 2 -37 -1 -36 -21z"/>
<path d="M88 609 c-10 -5 -14 -17 -11 -29 3 -11 9 -17 15 -14 5 3 15 1 23 -6
7 -6 42 -13 77 -15 34 -3 74 -7 88 -9 14 -3 39 -7 55 -10 70 -10 112 -18 141
-27 17 -5 40 -12 50 -14 10 -2 36 -9 56 -13 24 -7 40 -6 47 1 14 14 14 47 1
47 -16 0 -23 2 -50 12 -14 5 -33 12 -42 14 -10 2 -27 6 -38 9 -11 3 -30 7 -42
10 -13 2 -36 8 -53 11 -16 4 -41 9 -55 10 -14 2 -38 5 -55 8 -16 3 -63 8 -104
11 -40 3 -77 7 -80 9 -4 3 -14 0 -23 -5z"/>
<path d="M133 478 c-2 -27 40 -50 97 -51 27 -1 50 -4 50 -7 0 -4 49 -11 103
-13 9 -1 17 -4 17 -7 0 -3 8 -6 18 -7 43 -2 72 -8 72 -14 0 -4 11 -7 25 -8 47
-3 55 -4 55 -12 0 -3 10 -9 23 -11 28 -5 50 16 42 41 -5 17 -24 25 -90 37 -11
3 -27 7 -35 10 -8 4 -28 8 -45 10 -16 2 -37 7 -45 11 -16 6 -44 11 -97 14 -18
1 -33 5 -33 9 0 4 -12 6 -26 6 -14 -1 -49 1 -78 4 -45 5 -52 3 -53 -12z"/>
<path d="M203 372 c-26 -4 -27 -9 -10 -37 12 -20 21 -24 67 -30 14 -1 25 -4
25 -5 0 -1 23 -4 50 -6 74 -7 75 -7 75 -14 0 -3 16 -7 37 -8 20 -2 41 -6 46
-9 5 -3 24 -8 40 -10 17 -1 33 -6 36 -11 8 -10 61 -15 62 -5 8 52 1 61 -43 54
-5 0 -8 4 -8 11 0 6 -3 9 -6 6 -3 -4 -34 2 -70 12 -35 10 -67 19 -69 19 -3 1
-6 2 -7 2 -2 1 -16 3 -33 5 -44 5 -64 9 -71 17 -4 4 -13 2 -21 -4 -10 -9 -13
-8 -13 1 0 8 -3 11 -6 8 -3 -4 -18 -3 -32 1 -15 4 -37 5 -49 3z"/>
<path d="M236 245 c-5 -15 24 -50 49 -60 11 -4 40 -8 65 -9 25 -1 50 -4 55 -7
6 -4 28 -10 50 -14 22 -4 44 -10 50 -13 5 -4 19 -7 31 -8 12 0 30 -4 40 -9 32
-13 43 -14 53 -1 9 11 10 48 0 46 -2 -1 -17 4 -34 10 -16 7 -37 13 -45 15 -8
2 -35 8 -59 14 -25 5 -48 8 -52 5 -4 -2 -9 0 -11 6 -1 5 -23 11 -48 12 -25 2
-51 9 -59 16 -10 10 -16 10 -27 1 -8 -6 -14 -7 -14 -2 0 13 -39 11 -44 -2z"/>
<path d="M290 110 c0 -23 33 -47 75 -54 17 -2 30 -5 30 -6 0 -1 16 -4 35 -7
19 -2 58 -12 87 -22 29 -10 49 -13 46 -7 -4 6 0 5 9 -2 19 -15 80 -13 70 3 -4
5 -7 17 -7 25 0 8 -6 16 -12 16 -7 1 -20 2 -29 3 -8 0 -13 5 -10 9 2 4 -3 8
-12 9 -21 2 -76 11 -79 14 -6 3 -24 7 -49 8 -14 0 -23 4 -21 9 3 4 -9 7 -26 8
-18 0 -49 3 -69 7 -33 6 -38 4 -38 -13z"/>
</g>
</svg>
