<?xml version="1.0" standalone="no"?>
<!DOCTYPE svg PUBLIC "-//W3C//DTD SVG 20010904//EN"
 "http://www.w3.org/TR/2001/REC-SVG-20010904/DTD/svg10.dtd">
<svg version="1.0" xmlns="http://www.w3.org/2000/svg"
 width="596.000000pt" height="596.000000pt" viewBox="0 0 596.000000 596.000000"
 preserveAspectRatio="xMidYMid meet">
<metadata>
Created by potrace 1.11, written by Peter Selinger 2001-2013
</metadata>
<g transform="translate(0.000000,596.000000) scale(0.100000,-0.100000)"
fill="#000000" stroke="none">
<path d="M2570 5948 c-451 -76 -807 -204 -1145 -413 -123 -76 -264 -174 -295
-205 -3 -3 -36 -31 -75 -62 -80 -64 -312 -298 -371 -373 -21 -27 -41 -52 -44
-55 -7 -7 -80 -106 -122 -165 -106 -150 -242 -406 -316 -595 -57 -147 -92
-263 -131 -431 -58 -256 -66 -338 -66 -689 1 -280 6 -345 44 -546 152 -800
657 -1532 1354 -1965 270 -168 545 -286 842 -360 269 -68 308 -72 705 -76 248
-3 387 -1 435 7 204 34 502 106 595 144 19 8 73 29 120 47 193 74 480 233 657
365 43 32 80 61 83 64 3 3 28 23 55 44 76 60 277 260 364 361 367 429 601 946
685 1514 19 126 23 723 5 830 -95 583 -272 997 -624 1457 -75 98 -314 345
-409 421 -39 32 -73 60 -76 63 -18 19 -206 150 -293 204 -186 115 -446 235
-642 297 -93 30 -322 85 -405 99 -41 6 -97 16 -124 21 -62 12 -732 9 -806 -3z
m-230 -449 c22 -68 44 -127 49 -132 6 -6 36 -5 75 2 150 26 310 41 446 41
l146 0 39 40 c45 46 91 70 134 70 32 0 35 -3 45 -52 3 -14 17 -40 31 -56 21
-25 36 -31 102 -41 43 -7 113 -20 156 -30 42 -10 77 -16 78 -12 0 3 2 15 4 26
1 11 6 61 10 112 l8 92 44 31 c24 18 46 30 49 27 4 -4 -4 -73 -21 -177 -1 -8
-5 -36 -9 -61 -10 -59 -10 -60 -79 -103 l-58 -37 -97 20 c-53 12 -106 23 -117
25 -11 2 -38 7 -59 10 -34 6 -42 4 -56 -14 -16 -21 -16 -21 -99 30 -46 27 -88
50 -92 50 -5 0 -13 -8 -18 -18 -9 -17 -29 -20 -188 -26 -213 -8 -350 -23 -453
-52 -51 -15 -55 -15 -67 2 -7 10 -18 34 -23 54 -5 19 -25 84 -44 144 l-35 109
22 38 c15 26 24 34 29 25 4 -7 25 -68 48 -137z m-196 19 c24 -51 51 -114 60
-139 l18 -46 -33 -68 c-18 -37 -40 -69 -49 -72 -128 -38 -392 -162 -544 -256
-80 -49 -107 -61 -138 -60 -35 2 -37 1 -32 -25 4 -23 -2 -33 -48 -68 -29 -23
-92 -78 -140 -123 -131 -124 -131 -124 -175 -112 -44 12 -48 10 -33 -19 18
-34 4 -61 -61 -114 -69 -55 -74 -54 -109 26 -21 49 -21 52 -6 122 14 61 15 72
2 81 -12 9 -36 74 -36 98 0 5 52 -19 115 -53 68 -36 120 -58 127 -54 7 4 56
47 108 94 52 47 123 108 158 135 34 26 62 50 62 52 0 3 -9 18 -21 34 -18 26
-20 37 -12 76 l8 46 32 -51 c18 -29 39 -52 48 -52 8 0 73 33 143 73 157 91
274 147 417 199 61 22 120 44 132 49 22 8 22 9 -29 110 l-51 102 17 54 c9 29
19 53 22 53 3 0 25 -42 48 -92z m1773 -35 c-3 -27 -15 -88 -28 -138 -18 -73
-30 -97 -60 -130 -21 -22 -40 -38 -43 -35 -2 3 6 66 20 140 25 135 25 135 67
172 23 21 43 38 45 38 2 0 1 -21 -1 -47z m318 -85 c10 -12 23 -15 48 -11 30 4
37 1 56 -25 11 -17 21 -32 21 -35 0 -3 -17 -11 -37 -18 -35 -11 -37 -11 -63
21 -23 28 -31 31 -57 26 -27 -6 -34 -3 -52 22 -28 40 -27 47 12 59 26 8 34 7
45 -6 7 -9 19 -24 27 -33z m14 -163 c39 -84 24 -131 -53 -172 -62 -32 -196 13
-196 66 0 27 74 89 144 122 34 15 66 28 72 29 7 0 21 -20 33 -45z m238 -122
c29 -106 -11 -187 -113 -235 -106 -49 -150 -34 -230 78 -34 49 -36 54 -20 54
8 0 25 -11 38 -24 13 -14 36 -30 51 -35 36 -14 121 -14 170 0 31 8 37 14 37
37 0 15 -5 43 -10 62 -10 32 -8 37 20 63 17 15 35 27 40 27 5 0 13 -12 17 -27z
m220 -41 c-34 -78 -104 -191 -138 -224 -38 -35 -75 -55 -85 -45 -3 3 23 60 57
127 61 118 65 123 114 145 65 30 66 30 52 -3z m216 -99 c3 -5 7 -24 8 -43 l4
-35 -40 3 c-22 2 -41 5 -43 7 -2 2 -6 20 -9 39 l-5 36 41 0 c22 0 42 -3 44 -7z
m-2011 -100 c-6 -2 -10 -9 -7 -13 3 -5 12 -7 20 -4 8 4 12 10 9 15 -3 5 3 9
13 9 14 0 11 -6 -14 -29 -18 -15 -29 -32 -25 -36 4 -4 -3 -5 -15 -2 -13 3 -26
1 -29 -5 -3 -5 -12 -7 -20 -4 -8 3 -11 0 -7 -10 5 -13 8 -13 24 2 34 30 20 -1
-15 -35 -22 -21 -36 -29 -41 -21 -5 8 -10 8 -20 0 -9 -8 -17 -7 -26 2 -8 7
-27 13 -44 12 -16 -1 -40 -2 -52 -3 -24 -1 -73 -73 -73 -107 0 -10 -6 -31 -14
-45 -12 -23 -11 -27 6 -38 17 -11 18 -10 8 9 -10 20 3 30 14 11 4 -5 17 -8 31
-6 20 2 23 0 14 -11 -6 -8 -15 -11 -20 -8 -5 3 -8 0 -7 -8 2 -7 -3 -12 -9 -10
-7 1 -13 -4 -13 -10 0 -7 -39 -52 -87 -100 l-88 -88 -357 0 c-314 0 -357 2
-352 15 8 20 -1 19 -21 -1 -9 -9 -18 -14 -20 -12 -3 2 14 22 37 44 27 25 37
31 29 16 -7 -14 -8 -22 -1 -22 5 0 10 5 10 11 0 6 7 9 15 5 10 -4 17 3 21 22
10 41 21 49 60 46 32 -2 34 -1 17 11 -10 7 -21 11 -25 9 -5 -3 -8 -3 -8 0 0
12 125 84 141 81 11 -2 17 0 14 5 -9 15 52 58 79 55 17 -2 26 2 26 10 0 8 5
17 12 21 6 4 8 3 4 -4 -3 -6 -2 -13 4 -17 5 -3 10 3 10 14 0 12 3 20 8 19 8
-1 45 13 52 21 3 3 16 12 29 19 21 13 23 12 17 -3 -4 -13 -2 -16 9 -11 8 3 15
0 15 -6 0 -6 3 -8 6 -5 4 4 2 13 -5 20 -12 15 -7 22 28 42 9 5 12 4 7 -3 -4
-7 -5 -12 -2 -12 2 0 11 -3 20 -6 10 -4 16 -1 16 8 0 20 69 52 84 38 7 -5 16
-6 20 -2 11 10 30 9 38 -3 4 -5 8 0 8 13 0 13 6 22 16 22 8 0 12 4 9 10 -3 6
1 7 9 4 9 -3 16 -1 16 5 0 7 10 10 25 7 13 -3 27 0 30 5 4 5 12 9 18 9 7 0 3
-7 -7 -15 -10 -8 -24 -12 -30 -8 -7 4 -7 2 0 -6 9 -10 17 -10 34 -1 20 11 21
10 15 -12 -5 -20 -5 -21 5 -5 7 10 9 25 6 33 -3 8 1 15 12 16 32 2 37 4 50 12
7 4 20 2 29 -6 14 -11 16 -11 8 1 -6 11 -3 13 17 8 14 -4 28 -4 32 0 13 13 51
14 73 2 13 -7 26 -9 30 -6 3 4 -2 8 -13 8 -10 1 -3 5 16 9 42 9 60 10 42 3z
m141 -12 c-17 -13 -17 -13 2 -6 40 15 68 18 61 6 -5 -8 0 -8 19 -1 33 12 35
12 35 -1 0 -5 -5 -7 -12 -3 -6 4 -8 3 -5 -4 4 -5 16 -8 27 -5 11 3 17 10 14
15 -4 7 0 7 12 0 11 -5 25 -7 33 -4 8 2 11 0 8 -5 -3 -5 3 -9 14 -9 10 0 19 4
19 9 0 4 6 5 13 0 6 -4 23 -8 37 -9 14 -1 35 -2 48 -3 12 0 22 -5 22 -9 0 -5
-16 -7 -35 -6 -20 2 -33 -1 -30 -5 5 -9 46 -7 92 3 17 4 21 1 16 -12 -5 -13
-3 -14 6 -6 16 14 87 -9 83 -27 -2 -10 0 -10 12 0 11 9 16 9 22 0 5 -8 3 -9
-6 -4 -9 5 -11 4 -6 -4 6 -9 11 -9 21 -1 10 9 20 8 37 -1 13 -7 27 -12 31 -11
5 1 5 -3 1 -9 -5 -9 -2 -10 10 -6 11 4 15 3 10 -4 -3 -6 -17 -8 -31 -4 -16 4
-22 2 -18 -5 4 -6 30 -9 61 -7 48 2 53 1 48 -15 -7 -23 5 -23 22 0 9 11 13 13
14 4 0 -7 5 -10 11 -7 6 4 13 -3 16 -15 3 -13 11 -19 19 -16 8 3 14 1 14 -4 0
-6 7 -10 16 -10 9 0 12 -5 8 -12 -6 -9 -3 -9 9 0 12 11 20 11 34 2 17 -11 17
-11 -2 -5 -11 3 -16 2 -11 -2 4 -4 24 -14 44 -20 20 -7 27 -11 15 -9 -13 2
-25 1 -28 -4 -8 -12 30 -18 50 -7 13 7 16 6 11 -2 -4 -6 -1 -11 8 -11 15 0 40
-33 31 -42 -2 -2 4 -4 15 -4 10 0 16 4 14 8 -3 4 11 -1 30 -13 20 -12 36 -25
36 -30 0 -5 7 -9 15 -9 8 0 15 -5 15 -11 0 -6 -7 -9 -14 -6 -24 9 -7 -22 18
-34 20 -10 20 -10 2 5 -23 18 -18 20 18 6 14 -5 26 -16 26 -24 0 -7 14 -16 31
-20 17 -3 28 -10 24 -16 -3 -5 1 -10 9 -10 9 0 16 -5 16 -11 0 -5 -6 -7 -12
-3 -9 5 -9 2 1 -9 15 -18 26 -23 16 -7 -9 15 4 12 21 -5 14 -13 -27 -15 -363
-15 l-379 0 -32 33 c-18 18 -30 36 -27 40 3 4 2 5 -1 2 -8 -5 -144 125 -141
134 1 3 -2 7 -6 8 -19 3 -67 58 -62 71 3 7 0 10 -6 6 -6 -3 -31 13 -55 37 -43
42 -61 75 -26 48 15 -13 16 -12 3 3 -7 10 -18 15 -23 12 -13 -8 -69 46 -61 59
3 6 2 7 -3 4 -6 -3 -30 14 -54 39 l-44 45 33 -3 c30 -2 31 -3 14 -17z m1781
-37 c19 -48 -2 -135 -41 -177 -38 -41 -119 -77 -171 -77 -37 0 -49 5 -74 32
-36 39 -80 124 -76 146 2 12 13 3 35 -29 36 -51 71 -69 138 -69 86 0 130 35
114 90 -13 45 -9 58 24 79 39 25 43 25 51 5z m-3256 -41 c-3 -36 -6 -39 -45
-47 -24 -6 -43 -15 -43 -22 0 -22 -31 -44 -61 -44 -26 0 -29 3 -26 32 2 33 8
36 75 54 6 2 12 14 12 28 0 19 6 26 28 29 64 10 63 10 60 -30z m882 13 c0 -3
-4 -8 -10 -11 -5 -3 -10 -1 -10 4 0 6 5 11 10 11 6 0 10 -2 10 -4z m-30 -10
c0 -3 -4 -8 -10 -11 -5 -3 -10 -1 -10 4 0 6 5 11 10 11 6 0 10 -2 10 -4z
m1280 -52 c0 -2 -7 -4 -15 -4 -8 0 -15 4 -15 10 0 5 7 7 15 4 8 -4 15 -8 15
-10z m-2913 -32 c3 -29 -1 -34 -37 -48 -34 -14 -40 -21 -40 -46 0 -24 -6 -32
-35 -44 -45 -18 -42 -19 -47 22 -4 33 -2 37 33 51 31 12 38 20 41 46 2 22 11
36 28 44 38 19 54 12 57 -25z m1941 -6 c15 -8 59 -39 97 -70 80 -64 112 -71
148 -30 26 30 68 54 96 54 34 0 78 -46 90 -94 6 -25 11 -111 11 -193 0 -201
36 -351 111 -459 26 -38 27 -44 12 -44 -35 1 -101 38 -126 72 -35 46 -55 105
-63 186 -7 86 -10 93 -29 85 -14 -5 -16 -16 -10 -67 3 -33 13 -86 22 -116 22
-77 42 -164 39 -168 -2 -1 -15 9 -29 22 -35 33 -57 114 -61 227 -3 78 -6 95
-20 97 -14 3 -16 -9 -16 -90 0 -51 5 -113 11 -137 8 -37 7 -51 -8 -78 -10 -18
-21 -33 -25 -33 -4 0 -15 14 -24 31 -13 26 -14 41 -5 93 12 67 15 199 5 209
-3 3 -12 3 -20 0 -10 -3 -13 -24 -12 -76 2 -129 -18 -196 -68 -236 -43 -34
-55 -27 -34 17 28 57 60 189 60 244 0 40 -3 48 -19 48 -16 0 -19 -11 -24 -77
-6 -94 -38 -184 -76 -216 -28 -23 -117 -55 -127 -45 -3 3 19 37 48 76 67 89
106 166 130 255 22 85 24 224 4 290 -13 44 -13 47 4 47 10 0 26 -7 34 -16 26
-26 18 0 -14 44 -38 53 -94 82 -160 82 -43 0 -50 3 -50 20 0 24 34 60 55 60 9
0 28 -6 43 -14z m217 -55 c0 -34 -30 -51 -51 -29 -25 24 -10 60 24 56 21 -2
27 -8 27 -27z m2106 -11 c46 -25 7 -140 -66 -192 -85 -61 -171 -81 -223 -54
-25 13 -122 125 -122 141 0 3 15 -5 33 -18 17 -14 55 -32 82 -41 63 -20 180
-25 197 -8 9 9 4 12 -23 12 -35 0 -54 10 -78 42 -10 13 -9 22 3 47 18 33 40
48 101 67 50 16 71 17 96 4z m-3281 -205 c0 -8 -4 -15 -10 -15 -5 0 -7 7 -4
15 4 8 8 15 10 15 2 0 4 -7 4 -15z m-162 -873 c-11 -13 -11 -14 2 -7 8 4 -77
-85 -190 -198 -172 -173 -207 -204 -220 -194 -13 10 -13 10 -3 -4 10 -13 6
-22 -25 -52 -21 -21 -42 -34 -47 -30 -4 5 -5 3 -2 -3 4 -6 -5 -22 -18 -34 -14
-13 -25 -19 -25 -13 0 6 7 13 15 17 9 3 12 12 8 22 -6 16 -7 16 -14 -2 -6 -16
-8 -16 -8 -2 -1 9 3 19 8 22 4 3 6 29 4 57 -2 29 -1 59 3 68 4 9 8 35 9 58 3
59 14 95 32 108 13 10 13 14 3 20 -9 5 -11 4 -6 -3 4 -7 2 -12 -4 -12 -7 0 -9
7 -6 16 3 9 6 18 6 20 0 3 6 2 13 -2 10 -6 10 -4 0 7 -17 17 -17 34 0 21 10
-8 13 -6 13 8 0 10 -3 17 -7 14 -8 -4 20 78 28 86 4 3 3 -4 -1 -15 -6 -16 -5
-18 6 -7 9 9 10 17 2 29 -8 12 -6 26 7 52 9 20 15 40 12 45 -4 5 -1 6 5 2 7
-4 12 -2 12 4 0 6 5 8 10 5 6 -3 10 -1 10 5 0 6 -6 13 -14 16 -18 7 -10 34 10
34 7 0 18 9 24 20 8 16 8 18 -4 14 -11 -4 -13 0 -9 16 3 12 12 24 19 27 8 3
14 13 14 22 0 12 2 13 9 3 6 -10 10 -9 14 7 3 14 1 19 -6 14 -7 -4 -8 0 -4 11
4 10 7 22 7 27 0 5 7 9 15 9 9 0 15 9 15 21 0 15 5 19 16 15 12 -5 15 0 12 22
-3 29 36 77 55 65 6 -3 7 -1 3 6 -4 6 -12 8 -19 4 -6 -3 0 11 13 33 24 40 49
72 35 44 -4 -8 4 -1 19 15 14 17 25 34 26 38 0 5 4 5 10 2 5 -3 7 0 5 7 -6 15
37 61 51 56 5 -2 10 1 11 6 1 5 7 12 13 16 9 5 9 9 1 14 -6 4 -14 0 -17 -8 -3
-9 -11 -16 -17 -16 -6 0 7 18 29 39 l39 40 3 -366 c2 -283 -1 -369 -10 -381z
m2771 704 c26 -26 29 -35 17 -39 -10 -4 -13 -1 -9 9 3 7 0 14 -7 14 -6 0 -10
-8 -8 -17 2 -12 12 -17 25 -16 21 2 69 -48 57 -59 -2 -3 0 -16 5 -29 7 -17 10
-19 10 -7 1 11 6 15 16 11 9 -3 14 -8 11 -10 -2 -3 5 -14 16 -25 16 -16 17
-22 6 -36 -8 -9 -8 -13 -1 -9 17 10 42 -20 38 -44 -3 -12 -2 -19 2 -15 10 10
33 -15 33 -36 0 -10 -4 -17 -9 -13 -5 3 -13 0 -17 -6 -4 -7 -3 -9 3 -6 6 4 14
-1 17 -10 6 -14 8 -14 21 3 13 17 14 17 15 2 0 -10 6 -18 13 -18 8 0 7 -4 -3
-10 -13 -8 -13 -10 2 -10 18 0 22 -35 6 -56 -4 -6 -2 -11 7 -11 8 0 12 4 9 9
-3 4 0 8 7 8 7 0 9 -10 7 -24 -4 -18 -1 -23 10 -18 10 3 13 1 8 -6 -4 -7 0
-15 9 -18 11 -5 13 -10 5 -19 -8 -10 -5 -17 11 -29 27 -19 32 -54 10 -81 -9
-12 -10 -15 -1 -7 16 14 34 16 26 3 -4 -5 -1 -11 4 -13 6 -2 12 -10 13 -18 2
-8 7 -21 11 -29 7 -10 5 -12 -3 -6 -10 5 -10 3 -2 -11 26 -46 38 -91 29 -107
-7 -13 -5 -15 8 -10 13 5 16 2 12 -9 -4 -9 -2 -20 4 -26 5 -5 10 -33 11 -61 1
-28 5 -51 9 -51 4 0 5 -18 3 -40 -2 -22 1 -42 7 -46 5 -3 9 -29 8 -58 -2 -28
-1 -53 0 -56 1 -3 4 -22 5 -44 l3 -38 -23 22 c-14 13 -22 28 -18 34 3 6 2 8
-2 3 -11 -9 -56 33 -49 45 3 5 0 7 -8 6 -7 -2 -12 4 -10 12 2 8 0 12 -4 8 -4
-5 -40 24 -80 64 -54 52 -71 75 -63 84 7 8 7 14 -1 19 -6 4 -10 3 -9 -2 5 -26
-6 -23 -46 17 -24 24 -41 48 -38 53 3 6 2 7 -4 4 -11 -7 -66 46 -58 56 3 4 2
5 -2 2 -4 -3 -33 20 -65 52 l-58 57 0 330 c0 301 1 330 18 342 16 13 16 14 0
8 -15 -5 -18 0 -18 30 0 20 4 36 8 36 4 0 23 -15 41 -34z m-2022 -269 c65 -36
146 -73 181 -83 l62 -17 -20 -22 c-11 -12 -20 -26 -20 -32 0 -19 50 -24 113
-12 46 9 62 10 65 1 9 -28 88 -9 148 35 l30 23 23 -40 c14 -25 29 -40 42 -40
10 0 19 3 19 8 0 4 9 22 20 40 l20 33 26 -31 c31 -37 73 -60 109 -60 30 0 31
8 4 54 l-21 36 44 -24 c46 -26 151 -51 168 -41 16 10 12 27 -11 51 l-21 22 47
8 c26 3 95 31 154 62 58 30 123 63 144 74 84 42 178 33 243 -24 41 -36 43 -48
8 -48 l-27 0 6 -87 c4 -49 18 -423 32 -833 14 -410 27 -774 30 -810 5 -78 -4
-99 -29 -72 -22 25 -30 165 -56 1022 -22 730 -24 767 -32 776 -10 10 -66 -24
-87 -54 -16 -23 -19 -40 -16 -78 3 -27 7 -114 9 -194 3 -80 14 -412 26 -739
11 -327 19 -595 18 -597 -2 -1 -13 5 -25 14 -26 20 -21 -66 -53 887 -12 335
-24 613 -28 617 -5 5 -26 -11 -48 -35 l-41 -42 22 -650 c12 -357 21 -651 21
-652 -1 -1 -12 7 -25 18 -20 16 -24 30 -26 82 -1 34 -10 303 -20 597 -9 294
-19 541 -21 548 -3 9 -13 8 -43 -8 -86 -43 -285 -16 -449 60 -47 22 -89 40
-94 40 -6 0 -42 -15 -81 -34 -117 -55 -201 -77 -317 -83 -95 -5 -110 -3 -148
16 -32 16 -43 18 -46 9 -2 -7 -12 -254 -21 -548 -10 -294 -19 -547 -20 -562
-1 -16 -3 -43 -4 -60 -1 -31 -34 -89 -44 -78 -2 3 6 298 18 655 l22 650 -43
45 c-24 24 -45 42 -48 39 -3 -2 -14 -279 -26 -614 -31 -930 -28 -877 -50 -899
-11 -11 -22 -17 -25 -14 -4 4 9 450 40 1363 3 83 8 165 11 183 4 23 -1 41 -16
62 -26 36 -80 67 -89 51 -4 -6 -17 -338 -29 -738 -30 -963 -34 -1027 -59
-1055 -9 -10 -19 -18 -23 -18 -7 0 -9 -45 26 915 35 984 35 911 7 907 -32 -5
-28 12 10 44 52 44 86 55 154 50 55 -3 78 -12 180 -69z m697 -292 c95 -43 216
-74 315 -82 42 -3 78 -7 80 -9 2 -1 -7 -54 -19 -116 -66 -332 -218 -629 -394
-769 -27 -22 -54 -39 -61 -39 -20 0 -143 118 -196 188 -67 89 -141 238 -188
378 -42 125 -81 285 -81 332 l0 28 103 11 c109 13 233 48 307 87 25 14 48 25
51 25 4 1 41 -15 83 -34z m-535 -475 c-4 -52 -10 -124 -13 -160 -4 -36 -11
-123 -16 -195 -10 -141 -18 -193 -31 -200 -4 -3 -6 9 -3 27 2 18 11 123 19
233 21 284 37 431 45 409 4 -10 3 -62 -1 -114z m935 -35 c19 -241 37 -448 37
-453 1 -4 0 -18 -1 -32 -4 -52 -20 32 -30 160 -5 69 -13 159 -16 200 -15 179
-19 250 -15 262 6 16 17 -46 25 -137z m-829 -135 c8 -16 15 -33 15 -37 -1 -15
-50 -64 -59 -59 -8 5 16 126 25 126 2 0 10 -13 19 -30z m751 -98 c-4 -3 -20 8
-37 24 l-30 31 18 38 18 38 19 -62 c10 -34 15 -65 12 -69z m-697 -6 c28 -45
27 -53 -16 -93 l-38 -34 -16 48 -17 48 31 33 c17 17 32 32 33 32 1 0 12 -15
23 -34z m655 5 l28 -29 -17 -52 -17 -52 -40 39 -40 40 21 42 c12 22 25 41 29
41 5 0 21 -13 36 -29z m-2171 -85 c-4 -5 -2 -6 4 -3 5 3 45 -30 88 -73 71 -72
77 -80 64 -97 -13 -17 -13 -17 4 -4 17 13 23 9 74 -41 47 -48 54 -58 44 -75
-8 -15 -7 -25 5 -39 9 -11 13 -13 9 -6 -4 7 -1 20 7 29 9 12 9 15 1 9 -7 -4
-13 -2 -13 3 0 6 4 11 9 11 14 0 32 -26 23 -35 -4 -5 -2 -5 4 -2 6 3 38 -22
72 -57 l62 -63 0 -378 c-1 -340 -2 -375 -17 -364 -9 8 -11 15 -4 17 6 2 11 8
11 13 0 4 -7 6 -15 3 -8 -4 -17 1 -21 10 -3 9 -10 14 -14 11 -5 -3 -11 -1 -14
4 -4 5 -1 13 5 17 8 5 9 3 4 -6 -5 -9 -4 -11 3 -6 13 8 -13 56 -30 56 -5 0 -2
-7 6 -16 9 -8 16 -18 16 -22 0 -4 -11 5 -25 20 -18 21 -23 36 -19 63 2 19 0
35 -6 35 -5 0 -7 -8 -3 -17 5 -15 3 -16 -8 -6 -7 7 -21 13 -30 13 -25 0 -59
62 -47 84 8 14 5 19 -11 23 -11 3 -19 9 -16 13 3 5 -3 11 -13 14 -22 7 -45 52
-36 68 4 6 2 8 -4 4 -12 -7 -21 4 -27 34 -2 11 1 20 7 20 6 0 4 8 -5 18 -10
10 -17 25 -17 33 0 11 -2 11 -9 1 -6 -10 -11 -9 -22 4 -12 16 -12 17 1 10 8
-4 7 -1 -3 7 -11 9 -14 18 -8 21 17 11 9 44 -10 41 -19 -4 -34 22 -17 27 7 3
9 12 5 22 -4 10 -12 14 -18 10 -8 -4 -9 -3 -5 4 4 6 0 23 -9 36 -9 14 -14 29
-11 35 3 5 0 22 -9 38 -42 82 -54 120 -35 108 6 -3 10 -2 10 4 0 5 -6 11 -12
14 -10 3 -10 8 1 21 12 14 12 16 -2 11 -12 -5 -15 0 -13 24 1 17 -2 27 -8 24
-5 -4 -7 3 -4 15 4 12 2 22 -4 22 -6 0 -8 6 -5 14 3 7 2 31 -3 52 -5 21 -6 41
-2 44 11 8 13 32 2 25 -5 -3 -10 -2 -10 4 0 5 5 13 10 16 6 3 10 12 10 18 0 7
-4 6 -11 -3 -7 -11 -8 -3 -4 30 4 31 3 41 -4 30 -7 -11 -10 -6 -9 18 l1 33 43
-43 c23 -23 40 -47 37 -52z m3691 59 c-16 -12 -17 -17 -6 -35 7 -11 9 -26 5
-33 -11 -18 -12 -37 -2 -37 5 0 9 -7 9 -15 0 -8 -6 -15 -12 -15 -10 0 -10 -2
-1 -8 7 -5 9 -13 3 -21 -4 -8 -6 -20 -3 -28 3 -7 0 -20 -7 -28 -10 -12 -10
-15 1 -15 10 0 10 -3 2 -11 -6 -6 -9 -18 -6 -25 3 -8 1 -14 -4 -14 -5 0 -8
-13 -5 -28 2 -18 -2 -35 -13 -46 -12 -12 -16 -26 -11 -46 3 -16 1 -32 -5 -35
-5 -4 -8 -14 -7 -23 2 -9 -8 -22 -22 -29 -22 -11 -23 -13 -5 -14 11 0 14 -3 7
-6 -6 -2 -10 -9 -6 -14 3 -5 -1 -9 -8 -9 -10 0 -10 -2 0 -8 9 -6 7 -13 -8 -29
-14 -15 -16 -23 -7 -26 7 -3 5 -6 -5 -6 -17 -1 -34 -52 -23 -71 3 -6 0 -7 -9
-4 -9 3 -16 1 -16 -5 0 -6 5 -11 10 -11 6 0 10 -4 10 -10 0 -5 -7 -10 -15 -10
-16 0 -41 -38 -36 -59 1 -7 -2 -10 -8 -6 -6 3 -11 1 -11 -4 0 -6 6 -11 13 -12
9 0 9 -2 0 -5 -7 -3 -10 -11 -7 -18 3 -7 -4 -23 -16 -36 -11 -13 -20 -28 -20
-34 0 -16 -56 -76 -71 -76 -8 0 -8 -4 -1 -13 7 -8 6 -18 -4 -31 -7 -11 -16
-17 -19 -14 -3 3 1 13 10 22 9 9 11 16 5 16 -6 0 -13 -7 -16 -15 -4 -8 -10
-13 -14 -10 -4 3 -14 -3 -21 -13 -12 -15 -12 -16 2 -4 13 10 19 9 29 -3 12
-15 4 -20 -22 -16 -4 0 -5 -6 -2 -14 4 -8 1 -15 -6 -15 -6 0 -8 -5 -4 -12 5
-7 3 -8 -5 -4 -7 5 -10 14 -7 22 3 8 1 14 -4 14 -6 0 -10 -6 -10 -14 0 -8 -7
-22 -16 -31 -12 -12 -14 -19 -6 -27 12 -12 2 -24 -33 -44 -11 -6 -20 -17 -20
-25 0 -8 -8 -13 -17 -13 -9 1 -14 -4 -12 -11 3 -7 1 -16 -5 -20 -8 -4 -11 105
-11 367 l0 373 130 130 c71 72 134 129 140 128 5 -2 7 4 4 12 -4 11 1 15 17
15 12 0 19 3 15 7 -9 9 155 174 166 167 5 -3 7 0 6 8 -2 7 2 12 9 11 7 -2 10
4 7 12 -4 9 0 15 9 15 8 0 18 8 22 18 5 12 9 13 12 4 3 -7 -3 -19 -13 -27z m8
-27 c-7 -7 -12 -8 -12 -2 0 6 3 14 7 17 3 4 9 5 12 2 2 -3 -1 -11 -7 -17z
m-2269 -54 l17 -46 -37 -34 c-20 -18 -40 -31 -45 -28 -25 15 12 154 41 154 4
0 14 -21 24 -46z m828 -16 c17 -54 16 -98 -2 -98 -13 0 -69 58 -69 71 0 6 5
29 12 51 16 54 37 45 59 -24z m-113 -62 c-5 -17 -12 -39 -15 -48 -7 -25 -14
-23 -52 16 -35 36 -36 46 -11 112 l11 27 38 -37 c36 -35 38 -41 29 -70z m-574
47 l16 -47 -32 -33 c-18 -18 -37 -33 -43 -33 -6 0 -17 21 -24 46 -14 45 -14
45 20 80 18 19 36 34 40 34 4 0 14 -21 23 -47z m46 -14 c0 -6 -4 -7 -10 -4 -5
3 -10 11 -10 16 0 6 5 7 10 4 6 -3 10 -11 10 -16z m420 17 c0 -3 -4 -8 -10
-11 -5 -3 -10 -1 -10 4 0 6 5 11 10 11 6 0 10 -2 10 -4z m-367 -71 l27 -33
-23 -28 -24 -28 -17 52 c-26 77 -10 93 37 37z m329 -28 c-21 -55 -18 -54 -47
-27 l-25 24 32 33 c23 23 35 30 44 22 9 -8 9 -19 -4 -52z m-513 -38 c1 -8 -15
-30 -34 -49 l-34 -33 -21 48 -21 48 38 39 38 39 17 -38 c9 -21 17 -45 17 -54z
m715 69 c10 -13 25 -30 32 -39 12 -13 12 -23 -2 -62 -9 -26 -19 -47 -24 -47
-7 0 -70 66 -70 74 0 13 33 96 39 96 3 0 15 -10 25 -22z m-125 -42 l33 -34
-17 -52 -17 -52 -39 39 -40 39 18 47 c9 26 20 47 23 47 3 0 21 -15 39 -34z
m-459 -22 c13 -45 13 -45 -21 -80 -18 -18 -35 -34 -39 -34 -3 0 -13 21 -22 47
l-17 48 31 32 c18 18 37 33 44 33 6 0 17 -20 24 -46z m680 10 c0 -8 -4 -12
-10 -9 -5 3 -10 13 -10 21 0 8 5 12 10 9 6 -3 10 -13 10 -21z m-590 -55 c-19
-74 -21 -77 -35 -39 -12 33 -11 37 13 62 14 15 27 26 29 24 3 -2 -1 -24 -7
-47z m239 20 c22 -20 22 -39 1 -79 -6 -11 -10 -7 -15 15 -4 17 -11 42 -15 58
-11 32 -2 34 29 6z m-566 -36 l16 -48 -37 -38 -37 -38 -12 28 c-16 36 -7 92
20 121 11 12 24 22 28 22 3 0 14 -21 22 -47z m943 -34 c3 -18 1 -47 -6 -63
l-11 -29 -35 34 c-31 30 -34 38 -29 69 4 19 11 43 17 54 10 18 11 17 34 -6 14
-13 27 -40 30 -59z m-802 4 l16 -47 -39 -39 -39 -39 -17 52 -17 52 33 34 c18
19 36 34 40 34 4 0 14 -21 23 -47z m652 12 c25 -34 26 -37 14 -80 -7 -25 -17
-45 -23 -45 -16 0 -67 52 -67 68 0 31 24 92 36 92 7 0 25 -16 40 -35z m-512
-42 l16 -47 -34 -34 c-19 -19 -38 -32 -43 -29 -5 3 -16 24 -23 47 -13 40 -13
41 20 75 19 19 37 35 41 35 4 0 14 -21 23 -47z m365 13 c34 -35 34 -35 21 -80
-7 -26 -16 -46 -19 -46 -4 0 -22 16 -40 34 -34 35 -34 35 -21 80 7 26 16 46
19 46 4 0 22 -16 40 -34z m-599 -82 l13 -46 -36 -36 c-20 -20 -38 -34 -41 -31
-3 2 -11 26 -17 52 -13 47 -13 47 21 82 18 19 36 32 40 30 4 -3 13 -25 20 -51z
m838 13 l32 -33 -16 -47 c-9 -26 -19 -47 -23 -47 -4 0 -22 15 -40 34 -32 33
-33 35 -21 73 22 66 23 66 68 20z m-688 -78 c0 -15 -66 -87 -73 -78 -2 2 -11
24 -21 48 l-17 44 38 39 38 39 17 -38 c10 -21 18 -45 18 -54z m574 22 c8 -18
-24 -103 -37 -98 -6 2 -24 19 -39 38 l-28 35 17 46 17 47 32 -27 c18 -15 35
-33 38 -41z m210 22 c5 -14 3 -23 -3 -23 -16 0 -32 36 -24 55 7 19 15 10 27
-32z m-1061 23 c3 -8 -5 -24 -19 -37 -27 -26 -28 -24 -13 20 12 33 24 40 32
17z m356 -89 c-13 -65 -25 -73 -35 -21 -5 28 -2 40 16 60 13 13 25 22 27 21 2
-2 -2 -29 -8 -60z m350 -26 c-14 -41 -23 -31 -36 38 l-11 53 29 -29 c27 -27
29 -31 18 -62z m-674 20 l16 -50 -38 -35 -38 -35 -18 41 c-10 23 -16 45 -15
49 5 13 63 79 70 79 3 0 14 -22 23 -49z m1024 15 c34 -35 34 -35 21 -80 -7
-26 -17 -46 -23 -46 -16 0 -67 52 -67 68 0 23 22 92 30 92 3 0 21 -16 39 -34z
m-886 -43 l18 -47 -35 -34 c-18 -19 -39 -32 -45 -28 -6 4 -16 25 -22 47 -12
38 -11 41 21 74 19 19 37 35 40 35 3 0 14 -21 23 -47z m777 -34 c0 -9 -7 -33
-16 -54 l-15 -38 -35 34 c-38 37 -41 53 -19 106 l15 36 35 -33 c19 -19 35 -41
35 -51z m-636 4 l16 -47 -37 -38 -38 -39 -17 38 c-9 21 -17 45 -17 53 -1 14
57 80 70 80 4 0 14 -21 23 -47z m492 -57 c-7 -17 -16 -40 -20 -51 -6 -18 -10
-16 -42 17 -39 42 -40 51 -18 103 l15 38 39 -38 c36 -36 38 -39 26 -69z m-716
-46 c0 -9 -17 -33 -38 -53 l-39 -38 -17 45 -17 45 38 46 38 46 17 -38 c10 -21
18 -45 18 -53z m-164 -8 l-28 -27 7 35 c4 19 12 46 18 60 l10 25 10 -33 c9
-30 7 -36 -17 -60z m1091 56 c18 -18 33 -40 33 -49 0 -15 -17 -64 -27 -78 -2
-3 -21 13 -43 34 -41 40 -41 42 -19 103 11 29 17 28 56 -10z m113 -67 c0 -11
-3 -11 -16 -1 -28 24 -35 47 -23 77 l11 28 14 -45 c7 -25 14 -51 14 -59z
m-914 34 c19 -47 19 -50 -23 -96 l-37 -41 -17 38 c-10 22 -18 46 -18 54 -1 15
57 80 71 80 5 0 16 -16 24 -35z m663 1 c34 -35 34 -35 21 -80 -7 -26 -16 -46
-20 -46 -4 0 -24 15 -45 34 -36 34 -37 35 -25 73 22 66 23 66 69 19z m1395 19
c-4 -8 -8 -15 -10 -15 -2 0 -4 7 -4 15 0 8 4 15 10 15 5 0 7 -7 4 -15z m-1954
-46 c0 -6 -7 -36 -17 -67 l-16 -57 -13 30 c-18 42 -17 51 8 80 23 27 38 32 38
14z m427 -11 c26 -24 29 -51 9 -87 -13 -23 -13 -22 -25 25 -7 27 -14 57 -17
67 -7 23 5 22 33 -5z m-758 -79 c1 -15 -65 -87 -72 -78 -2 2 -11 24 -20 49
l-17 44 37 39 38 38 17 -38 c9 -21 17 -45 17 -54z m1146 -33 c-10 -25 -21 -46
-25 -46 -14 0 -71 72 -66 83 3 7 10 29 17 50 l13 38 39 -39 39 -40 -17 -46z
m-2782 58 l27 -55 -52 -62 c-29 -34 -56 -63 -60 -65 -3 -2 -18 -18 -32 -36
l-24 -33 127 5 128 5 27 -54 c14 -30 44 -79 67 -109 22 -30 44 -64 48 -75 5
-12 26 -43 47 -70 l38 -50 -26 -125 c-14 -69 -24 -127 -22 -129 4 -4 107 74
124 94 8 10 8 19 0 34 -6 12 -8 21 -4 21 9 0 213 -214 208 -219 -2 -3 -10 1
-16 7 -7 7 -17 12 -24 12 -6 0 -58 -45 -113 -99 -90 -88 -101 -102 -92 -120
22 -41 9 -34 -54 29 -63 63 -76 84 -37 59 17 -11 30 -2 121 88 55 55 101 107
101 116 0 9 -13 25 -28 36 l-29 20 -39 -26 c-21 -15 -75 -56 -119 -92 -44 -36
-86 -69 -94 -75 -17 -13 -13 20 24 197 14 70 25 132 23 136 -2 5 -39 -20 -83
-56 -69 -55 -80 -68 -79 -94 1 -16 -1 -29 -5 -28 -9 0 -72 81 -67 86 2 3 13 0
24 -6 17 -9 33 0 108 60 49 39 97 77 108 84 24 18 24 62 -2 87 l-20 21 -39
-23 c-21 -13 -76 -48 -121 -79 -78 -51 -83 -57 -78 -83 3 -15 4 -28 1 -28 -2
0 -24 31 -49 68 -49 72 -61 109 -27 78 19 -17 24 -16 134 53 63 39 120 77 126
85 10 12 6 21 -21 49 l-33 35 -125 -61 c-103 -51 -125 -66 -125 -84 -1 -41
-11 -32 -48 42 -20 41 -35 75 -32 75 3 0 14 -5 24 -12 15 -9 37 -2 132 45
l114 56 -157 -6 c-87 -3 -158 -3 -158 2 0 8 77 99 147 175 24 25 43 48 43 52
0 8 -135 -51 -185 -81 -22 -13 -30 -25 -30 -44 1 -40 -8 -33 -38 28 -28 57
-27 67 5 38 18 -16 25 -14 149 47 118 59 129 67 124 87 -10 42 10 24 38 -33z
m1767 -20 c13 -45 13 -45 -21 -80 -18 -18 -36 -34 -40 -34 -4 0 -13 21 -22 46
-15 46 -15 46 15 80 17 19 36 34 43 34 7 0 18 -20 25 -46z m858 13 l32 -33
-16 -47 c-9 -26 -17 -47 -19 -47 -1 0 -19 15 -40 34 -36 34 -37 35 -25 73 22
66 23 66 68 20z m-717 -51 c10 -36 9 -40 -22 -72 -18 -19 -36 -34 -40 -34 -4
0 -14 21 -23 47 l-16 47 37 38 c41 42 46 40 64 -26z m596 -57 c-8 -24 -19 -45
-24 -46 -5 -2 -24 12 -42 31 l-32 33 17 53 17 52 39 -40 40 -39 -15 -44z
m-972 22 c5 -17 4 -22 -6 -19 -8 3 -15 18 -17 34 -4 33 11 24 23 -15z m1288
-3 c-2 -5 -11 -8 -18 -8 -12 0 -12 5 -3 26 11 23 13 24 19 7 3 -10 5 -21 2
-25z m-1153 -8 c7 -22 10 -43 7 -46 -7 -7 -77 23 -77 33 0 9 42 53 50 53 4 0
13 -18 20 -40z m1045 -23 c-30 -18 -65 -27 -65 -16 0 5 7 26 15 46 l16 37 27
-28 c26 -26 27 -27 7 -39z m-911 9 c3 -13 9 -31 12 -40 5 -13 -2 -16 -40 -16
-54 0 -58 11 -19 52 33 34 39 35 47 4z m782 -44 c-14 -2 -37 -2 -50 0 -24 3
-24 4 -10 37 l14 34 36 -34 35 -34 -25 -3z m-1080 16 c4 -5 2 -8 -4 -8 -7 0
-12 -9 -12 -20 0 -29 48 -28 59 2 l8 23 7 -23 c6 -17 15 -22 42 -22 34 0 39
-6 28 -33 -5 -15 -50 -9 -187 28 -32 8 -60 15 -62 15 -3 0 -5 7 -5 15 0 9 9
15 23 15 12 0 28 4 34 8 16 10 59 10 69 0z m412 -23 c-1 -1 -14 -6 -28 -10
l-25 -7 25 27 c21 22 26 24 28 10 2 -9 2 -18 0 -20z m518 8 c-7 -7 -26 7 -26
19 0 6 6 6 15 -2 9 -7 13 -15 11 -17z m533 11 c12 -12 -34 -33 -107 -48 -42
-9 -91 -20 -108 -25 -28 -7 -33 -6 -43 15 -10 23 -9 24 28 24 31 0 40 4 45 23
l7 22 9 -22 c10 -24 44 -31 55 -13 4 6 1 18 -7 27 -12 15 -7 16 51 10 35 -4
67 -10 70 -13z m1421 -36 c0 -5 -10 -6 -23 -3 -38 10 -75 -11 -97 -54 -11 -22
-20 -43 -20 -45 0 -10 117 -65 124 -59 13 14 5 58 -16 80 -29 31 -10 29 67 -9
70 -35 84 -51 35 -41 -30 5 -70 -17 -70 -38 0 -13 115 -68 126 -61 11 8 30 47
39 79 4 13 -2 38 -15 63 -12 23 -19 44 -16 47 3 4 87 -56 86 -61 0 -1 -28 -57
-63 -125 -59 -119 -90 -160 -80 -109 4 21 -9 30 -120 86 -69 34 -130 62 -135
62 -6 0 -15 -8 -21 -17 -5 -10 -12 -15 -16 -11 -3 3 23 65 59 137 l66 131 45
-22 c25 -12 45 -26 45 -30z m-1360 11 c0 -10 -4 -19 -9 -19 -12 0 -23 29 -15
41 8 14 24 0 24 -22z m-1680 12 c0 -17 -12 -41 -21 -41 -10 0 -12 33 -2 43 9
10 23 9 23 -2z m1260 -60 l0 -29 -77 -6 c-43 -4 -104 -10 -136 -15 -57 -8 -59
-7 -68 17 -6 17 -6 29 2 38 10 12 15 12 36 -1 22 -15 27 -15 56 0 29 15 33 14
59 -5 36 -26 51 -25 84 5 35 32 44 32 44 -4z m-830 -6 c0 -20 50 -28 69 -12
24 21 61 31 61 16 0 -8 14 -10 48 -6 59 7 72 0 65 -35 -4 -21 -10 -26 -27 -22
-11 3 -73 9 -136 15 -63 6 -118 13 -121 17 -4 4 -3 17 2 29 9 24 39 22 39 -2z
m898 -3 c2 -13 0 -31 -3 -40 -6 -14 -10 -12 -21 13 -18 41 -17 57 4 53 9 -2
18 -14 20 -26z m-973 1 c-4 -10 -10 -26 -12 -35 -8 -28 -23 -21 -23 10 0 32 7
42 28 42 10 0 12 -6 7 -17z m-183 -30 c92 -23 117 -33 136 -55 28 -33 42 -35
49 -7 5 19 11 21 52 15 25 -3 84 -9 131 -12 133 -8 150 -12 150 -34 0 -31 46
-30 68 1 19 28 120 27 145 -1 9 -11 24 -20 33 -20 9 0 18 9 21 20 3 11 10 20
17 21 18 1 84 7 194 20 76 8 107 8 115 0 17 -17 44 -13 59 7 9 13 54 29 133
50 l120 31 25 -29 c19 -22 29 -27 40 -20 17 10 38 -1 90 -49 32 -29 33 -32 27
-88 -5 -45 -11 -62 -31 -78 -13 -11 -26 -31 -28 -45 -3 -21 -14 -28 -76 -47
-103 -32 -325 -71 -476 -83 -167 -13 -537 -13 -702 0 -153 13 -374 51 -476 83
-62 19 -73 26 -76 47 -2 14 -15 34 -28 45 -19 16 -25 33 -30 80 l-6 60 45 38
c52 42 84 48 83 16 -1 -16 6 -22 27 -25 33 -3 37 21 5 30 -15 4 -19 9 -12 13
6 5 17 18 23 31 7 13 18 21 26 18 8 -3 65 -17 127 -33z m768 -1 c0 -11 -22
-32 -32 -32 -5 0 -4 9 2 20 11 20 30 28 30 12z m-210 -17 c6 -8 10 -19 8 -24
-1 -5 -11 2 -21 15 -19 26 -8 34 13 9z m-1405 -36 c11 -17 0 -20 -21 -4 -17
13 -17 14 -2 15 9 0 20 -5 23 -11z m2966 -42 c-10 -9 -11 -8 -5 6 3 10 9 15
12 12 3 -3 0 -11 -7 -18z m569 -89 l45 -33 -56 -5 c-94 -9 -136 -55 -109 -120
25 -60 130 -130 196 -130 27 0 43 7 65 31 29 31 34 47 30 107 -2 17 2 32 8 32
7 0 11 -25 11 -65 0 -61 -2 -68 -37 -106 -45 -50 -81 -69 -130 -69 -46 0 -110
28 -140 61 -69 76 -53 217 32 269 27 17 34 27 30 41 -9 27 5 24 55 -13z
m-3012 -106 c2 -7 0 -12 -5 -11 -20 3 -23 -2 -9 -16 8 -8 19 -15 24 -15 10 0
53 -44 50 -51 -2 -2 2 2 8 9 12 12 15 12 69 -9 17 -7 41 -14 55 -16 13 -2 27
-9 31 -14 3 -6 18 -7 33 -3 14 3 32 2 39 -4 6 -5 25 -9 40 -7 18 2 30 -2 34
-11 3 -8 9 -14 15 -14 5 0 6 5 3 10 -10 16 33 12 60 -6 19 -12 25 -13 25 -3 0
10 3 10 11 2 6 -6 18 -9 25 -6 8 3 20 0 27 -6 8 -6 24 -8 37 -6 18 4 34 -5 62
-32 20 -20 35 -40 32 -45 -3 -4 1 -8 8 -8 21 0 81 -67 72 -81 -5 -8 -3 -9 5
-5 15 9 92 -63 84 -78 -3 -5 -2 -6 4 -3 5 3 25 -9 42 -27 25 -26 31 -38 24
-51 -9 -15 -11 -15 -22 -1 -15 17 -36 22 -26 6 3 -5 -3 -10 -14 -10 -13 0 -21
7 -22 18 -1 16 -2 16 -6 0 -7 -28 -110 -15 -135 17 -18 23 -48 25 -48 3 0 -7
5 -6 14 1 10 9 16 8 26 -4 7 -9 9 -19 5 -23 -4 -4 -9 -2 -12 4 -2 5 -17 9 -34
8 -25 -2 -28 0 -18 12 6 8 10 14 8 15 -34 6 -87 5 -96 -3 -9 -7 -17 -7 -26 0
-7 6 -34 16 -60 22 -26 7 -47 16 -47 20 0 7 -41 18 -82 23 -9 1 -16 5 -15 10
1 5 -4 12 -12 15 -8 3 -11 0 -7 -7 8 -13 4 -14 -19 -5 -13 5 -14 9 -4 15 10 6
7 10 -11 17 -16 6 -29 6 -37 0 -12 -10 -17 -4 -14 14 0 4 -7 4 -17 1 -14 -6
-15 -4 -4 9 10 13 10 17 -3 22 -11 4 -14 2 -9 -7 6 -9 5 -9 -8 0 -8 7 -18 10
-21 6 -4 -3 -7 -2 -7 4 0 6 -11 8 -25 5 -19 -3 -25 0 -25 14 0 16 -2 17 -10 4
-6 -9 -10 -10 -10 -3 0 6 -16 17 -35 23 -19 6 -35 18 -35 26 0 9 -4 13 -9 9
-6 -3 -13 0 -18 7 -4 7 -30 23 -56 36 -26 12 -45 27 -42 32 4 6 3 10 -2 9 -18
-3 -36 1 -30 7 11 11 -14 46 -28 40 -9 -3 -12 0 -9 8 3 8 -10 23 -31 36 -27
17 -33 25 -23 31 7 5 8 9 3 9 -6 0 -17 -6 -24 -12 -10 -11 -12 -9 -9 6 1 10
-3 21 -11 24 -8 3 -11 0 -7 -7 10 -16 -9 -14 -23 3 -11 13 11 15 160 13 130
-2 173 -5 177 -15z m2267 2 c-8 -9 -19 -12 -25 -9 -6 4 -9 1 -8 -6 2 -7 -10
-16 -27 -20 -25 -5 -26 -7 -7 -8 14 -1 20 -5 17 -12 -4 -6 -13 -8 -21 -5 -7 3
-16 0 -20 -6 -5 -7 -2 -8 7 -3 12 8 12 6 0 -8 -14 -18 -36 -13 -25 6 4 7 4 9
0 5 -4 -3 -7 -10 -6 -13 1 -4 -9 -13 -21 -19 -12 -6 -20 -13 -18 -16 7 -10
-64 -70 -74 -63 -8 5 -7 8 1 11 7 2 12 11 12 20 0 13 -4 11 -16 -6 -8 -12 -13
-26 -9 -32 3 -5 -4 -14 -16 -20 -13 -7 -19 -8 -15 -2 3 6 2 13 -4 17 -5 3 -10
1 -10 -5 0 -7 -12 -25 -27 -41 -20 -20 -38 -29 -60 -29 -26 0 -33 -4 -33 -20
0 -11 -5 -20 -11 -20 -5 0 -7 6 -4 13 4 6 0 4 -8 -5 -16 -21 -31 -24 -22 -5 4
6 0 4 -8 -5 -8 -10 -19 -18 -25 -18 -5 0 -12 -6 -15 -14 -4 -10 -16 -13 -39
-10 -25 4 -29 2 -18 -5 16 -11 9 -14 -25 -12 -15 1 -17 0 -7 -7 11 -7 10 -11
-4 -16 -11 -4 -20 -2 -22 3 -6 17 -19 13 -48 -14 -16 -15 -31 -22 -38 -17 -6
5 -24 5 -41 1 -16 -3 -24 -7 -16 -8 8 0 12 -4 9 -7 -4 -3 -9 -5 -13 -4 -3 1
-17 -5 -30 -14 -13 -9 -32 -13 -41 -9 -12 4 -15 3 -10 -5 4 -7 1 -12 -9 -12
-10 0 -13 5 -9 13 5 7 1 7 -10 -2 -10 -8 -30 -16 -44 -17 -15 -1 -40 -6 -57
-11 -16 -5 -51 -9 -77 -9 -27 1 -48 -1 -48 -4 0 -3 -11 -6 -25 -6 -14 -1 -25
3 -25 10 0 6 -4 6 -9 -3 -5 -7 -15 -11 -22 -9 -8 3 -22 1 -33 -4 -13 -7 -16
-7 -12 1 4 6 3 11 -3 11 -5 0 -13 -4 -16 -10 -3 -5 -14 -10 -23 -10 -11 0 -7
10 18 35 28 29 36 33 49 22 14 -10 14 -10 4 4 -10 13 1 28 71 98 55 55 88 81
96 76 9 -6 11 -4 5 4 -10 18 82 111 103 103 8 -3 13 -1 10 4 -4 5 25 10 65 11
40 1 73 6 75 12 4 13 52 15 52 2 0 -5 -10 -7 -22 -3 -13 3 -19 1 -15 -6 4 -5
15 -9 25 -7 9 2 26 4 37 5 19 1 19 2 1 9 -30 12 -5 21 59 23 30 1 55 6 55 11
0 5 9 7 20 4 11 -3 20 -1 20 5 0 6 14 8 38 4 28 -5 33 -4 22 4 -12 9 -11 10 8
5 27 -8 65 3 57 16 -4 5 3 9 14 9 10 0 21 5 23 12 3 7 12 9 22 5 10 -4 14 -12
10 -18 -4 -8 -3 -9 5 -5 7 4 9 16 5 28 -5 16 -3 19 14 14 29 -10 36 20 9 39
-20 14 -8 15 150 14 153 -1 171 -2 158 -15z m-305 -14 c0 -5 -4 -10 -10 -10
-5 0 -10 5 -10 10 0 6 5 10 10 10 6 0 10 -4 10 -10z m-2230 -40 c0 -5 -2 -10
-4 -10 -3 0 -8 5 -11 10 -3 6 -1 10 4 10 6 0 11 -4 11 -10z m40 -32 c0 -6 -7
-5 -15 2 -8 7 -15 17 -15 22 0 6 7 5 15 -2 8 -7 15 -17 15 -22z m3005 -79 c-6
-17 14 -41 112 -136 l118 -115 -85 5 c-47 3 -130 9 -185 13 l-100 6 80 -76
c73 -70 83 -76 114 -71 l34 4 -39 -42 c-21 -23 -40 -44 -41 -46 -2 -2 -6 -1
-9 2 -4 4 -1 14 6 22 12 14 0 30 -86 116 -85 86 -103 100 -126 96 -36 -5 -35
2 7 43 l34 33 128 -10 c70 -6 130 -8 132 -6 6 5 -89 102 -111 114 -12 6 -25 6
-38 -1 -29 -16 -24 -1 12 37 37 38 52 42 43 12z m-1140 -229 c-3 -5 -12 -10
-18 -10 -7 0 -6 4 3 10 19 12 23 12 15 0z m-2084 -69 c20 -23 44 -41 53 -41
13 0 10 -9 -13 -41 -16 -22 -33 -40 -37 -39 -4 0 -7 22 -5 48 2 35 -3 53 -17
70 -31 36 -92 24 -92 -18 0 -8 14 -48 31 -88 35 -86 33 -119 -13 -157 -50 -42
-118 -29 -171 35 -14 17 -36 34 -47 38 -21 8 -21 9 12 52 36 47 67 67 53 34
-4 -11 -9 -37 -12 -59 -4 -33 -1 -45 21 -67 28 -32 61 -36 88 -11 24 22 23 31
-12 106 -39 85 -39 120 0 159 28 28 35 30 78 25 39 -4 53 -12 83 -46z m2004
39 c-3 -5 -12 -10 -18 -10 -7 0 -6 4 3 10 19 12 23 12 15 0z m-998 -46 c-3 -3
-12 -4 -19 -1 -8 3 -5 6 6 6 11 1 17 -2 13 -5z m2018 -128 c44 -27 95 -55 113
-61 l33 -12 -62 -46 c-61 -46 -86 -54 -58 -21 12 14 10 19 -16 40 -26 21 -31
21 -54 9 -14 -8 -37 -23 -50 -33 -22 -18 -23 -22 -11 -56 10 -33 15 -37 36
-32 33 9 30 3 -14 -28 -45 -31 -57 -33 -41 -8 9 15 3 49 -30 170 -22 83 -41
160 -41 172 0 21 2 20 58 -11 31 -18 93 -55 137 -83z m-1645 84 c0 -5 -5 -10
-11 -10 -5 0 -7 5 -4 10 3 6 8 10 11 10 2 0 4 -4 4 -10z m-928 -215 c48 -18
102 -41 120 -52 81 -47 68 -143 -22 -156 -13 -2 -25 -8 -27 -13 -2 -5 8 -47
21 -94 14 -46 24 -86 22 -87 -1 -2 -20 3 -42 10 -41 14 -51 33 -84 166 -6 23
-14 40 -17 37 -3 -3 -15 -31 -25 -62 -18 -54 -18 -57 -1 -77 17 -20 17 -20 -2
-14 -11 3 -48 16 -82 28 -62 23 -81 39 -44 39 26 0 32 10 81 143 33 91 41 123
33 135 -17 27 -37 20 -56 -21 -23 -45 -37 -40 -30 11 4 30 0 41 -20 60 l-25
24 -15 -24 c-8 -12 -40 -70 -72 -127 -49 -87 -57 -106 -47 -122 7 -10 12 -21
12 -23 0 -2 -34 14 -75 37 -41 22 -75 43 -75 47 0 3 12 6 27 5 24 0 34 12 89
108 34 60 67 114 73 120 17 17 -7 37 -44 37 -19 0 -39 -8 -50 -20 -30 -33 -36
-12 -8 34 l26 43 136 -80 c75 -44 175 -94 223 -112z m2247 117 c-11 -18 -5
-35 46 -139 95 -188 91 -177 59 -169 -15 4 -72 29 -128 55 -129 62 -176 82
-176 74 0 -13 93 -188 104 -195 6 -4 19 -5 29 -2 9 3 17 1 17 -4 0 -8 -19 -17
-105 -51 -5 -2 -2 5 8 16 9 11 17 23 17 28 0 4 -26 59 -57 122 -49 99 -60 115
-85 120 -15 3 -28 9 -28 13 0 3 21 17 48 29 l47 22 120 -55 c66 -30 121 -53
123 -51 2 2 -13 36 -35 77 -33 64 -41 73 -65 73 -16 -1 -28 3 -28 7 0 8 93 58
98 53 2 -2 -2 -12 -9 -23z m-326 -147 l-21 -15 48 -137 c45 -129 50 -138 76
-143 25 -5 19 -9 -51 -33 -94 -32 -108 -33 -78 -8 l22 19 -47 133 c-45 127
-49 134 -77 139 -30 6 -30 6 15 22 111 41 150 49 113 23z m-154 -76 c6 -18 11
-41 11 -53 0 -18 -3 -17 -26 12 -22 28 -31 32 -73 32 -58 0 -71 -12 -61 -53 4
-18 11 -44 14 -59 4 -16 12 -28 18 -28 23 0 48 34 48 64 0 48 16 19 34 -61 18
-83 18 -83 8 -83 -4 0 -12 10 -17 22 -10 23 -59 47 -71 36 -3 -4 1 -35 8 -70
13 -57 17 -63 41 -66 47 -6 29 -18 -48 -35 -96 -22 -103 -21 -78 2 l21 20 -34
132 c-18 73 -37 136 -41 140 -4 4 -17 9 -28 11 -18 4 205 64 247 67 10 1 20
-11 27 -30z m-1446 0 c55 -12 77 -29 37 -29 -25 0 -25 2 1 -83 l21 -70 49 49
c53 52 59 69 32 91 -16 12 -13 13 22 7 48 -8 88 -22 65 -23 -9 -1 -47 -34 -86
-73 -66 -68 -72 -77 -83 -136 -13 -65 -10 -82 15 -82 8 0 13 -4 10 -9 -6 -9
-126 13 -153 28 -12 7 -10 9 10 15 22 5 26 13 33 62 5 47 2 73 -20 148 -15 50
-35 100 -44 110 -16 18 -16 19 8 13 14 -3 51 -11 83 -18z m1035 -101 c4 -56
-7 -61 -28 -16 -17 36 -54 51 -102 41 l-30 -6 4 -63 c2 -35 7 -66 10 -69 12
-13 46 15 58 47 11 30 13 31 20 13 5 -11 9 -49 9 -85 0 -52 -2 -61 -11 -45
-15 28 -38 45 -61 45 -18 0 -19 -5 -13 -61 7 -71 11 -79 36 -79 10 0 22 -4 25
-10 4 -6 -14 -10 -47 -10 -29 0 -71 -3 -93 -6 -37 -5 -39 -4 -21 10 17 14 18
25 12 138 -9 150 -12 163 -39 176 -17 7 -3 11 68 16 50 4 101 8 115 10 14 2
39 3 55 2 28 -1 30 -3 33 -48z m-408 20 c112 -57 132 -203 42 -289 -62 -59
-169 -61 -243 -6 -83 61 -73 230 16 284 65 39 122 42 185 11z"/>
<path d="M3160 5432 c0 -10 41 -35 47 -28 11 11 -7 36 -27 36 -11 0 -20 -3
-20 -8z"/>
<path d="M914 4565 c-1 -44 -1 -45 19 -32 37 24 45 46 23 63 -32 23 -41 16
-42 -31z"/>
<path d="M4108 5204 c-37 -19 -35 -40 5 -64 62 -38 81 -22 53 45 -17 39 -20
40 -58 19z"/>
<path d="M2660 4820 c20 -13 43 -13 35 0 -3 6 -16 10 -28 10 -18 0 -19 -2 -7
-10z"/>
<path d="M2543 4785 c0 -8 4 -12 9 -9 5 3 6 10 3 15 -9 13 -12 11 -12 -6z"/>
<path d="M2497 4779 c7 -7 15 -10 18 -7 3 3 -2 9 -12 12 -14 6 -15 5 -6 -5z"/>
<path d="M2280 4700 c-9 -6 -10 -10 -3 -10 6 0 15 5 18 10 8 12 4 12 -15 0z"/>
<path d="M2048 4597 c14 -6 26 -7 32 -1 6 6 -3 10 -23 10 -30 1 -30 1 -9 -9z"/>
<path d="M1924 4535 c-10 -8 -14 -15 -8 -15 5 0 19 7 30 15 10 8 14 15 8 15
-5 0 -19 -7 -30 -15z"/>
<path d="M1872 4507 c-9 -11 -5 -13 18 -13 23 0 27 2 18 13 -6 7 -14 13 -18
13 -4 0 -12 -6 -18 -13z"/>
<path d="M2487 4503 c3 -7 6 -13 8 -13 2 0 5 6 8 13 3 8 -1 14 -8 14 -7 0 -11
-6 -8 -14z"/>
<path d="M2524 4468 l-19 -23 23 19 c21 18 27 26 19 26 -2 0 -12 -10 -23 -22z"/>
<path d="M1905 4459 c-4 -6 -5 -12 -2 -15 2 -3 7 2 10 11 7 17 1 20 -8 4z"/>
<path d="M1805 4439 c-4 -6 -5 -12 -2 -15 2 -3 7 2 10 11 7 17 1 20 -8 4z"/>
<path d="M2483 4423 c0 -9 4 -10 14 -2 7 6 13 12 13 14 0 1 -6 2 -13 2 -8 0
-14 -6 -14 -14z"/>
<path d="M2410 4381 c-7 -15 -7 -22 2 -27 7 -4 10 -4 6 1 -4 4 -3 16 3 26 5
11 7 19 5 19 -3 0 -10 -9 -16 -19z"/>
<path d="M3275 4820 c-17 -7 -14 -9 13 -9 20 -1 31 3 27 9 -7 12 -13 12 -40 0z"/>
<path d="M3475 4791 c-3 -6 -15 -8 -27 -6 -11 3 -18 1 -14 -2 13 -13 53 -10
53 4 0 15 -4 17 -12 4z"/>
<path d="M3407 4508 c-3 -10 1 -22 11 -29 9 -8 14 -9 10 -5 -4 5 -2 16 5 24 8
11 8 14 0 9 -6 -4 -13 -2 -15 5 -3 8 -7 6 -11 -4z"/>
<path d="M3490 4436 c0 -2 7 -7 16 -10 8 -3 12 -2 9 4 -6 10 -25 14 -25 6z"/>
<path d="M4940 4572 c0 -21 18 -42 36 -42 19 0 24 28 8 45 -21 20 -44 19 -44
-3z"/>
<path d="M1542 4184 c-7 -8 -12 -20 -9 -27 2 -7 9 -2 16 11 15 28 11 36 -7 16z"/>
<path d="M1496 4121 c-3 -5 1 -11 9 -14 9 -4 12 -1 8 9 -6 16 -10 17 -17 5z"/>
<path d="M1453 4063 c-7 -2 -13 -9 -13 -15 0 -7 5 -7 13 1 8 6 18 7 22 3 5 -4
5 -1 1 6 -4 6 -8 12 -9 11 -1 0 -8 -3 -14 -6z"/>
<path d="M1534 3500 c-5 -8 -9 -19 -9 -25 0 -5 -9 -9 -20 -7 -19 2 -19 2 -1
-9 14 -9 20 -8 27 2 4 7 5 17 2 23 -4 5 1 7 10 3 9 -3 19 -1 23 5 4 6 3 8 -4
4 -5 -3 -12 -1 -14 6 -3 9 -7 8 -14 -2z"/>
<path d="M1447 3416 c-9 -22 7 -28 29 -10 10 9 13 12 5 8 -7 -3 -17 -1 -21 6
-5 8 -9 8 -13 -4z"/>
<path d="M1370 3380 c-6 -11 -8 -20 -6 -20 3 0 10 9 16 20 6 11 8 20 6 20 -3
0 -10 -9 -16 -20z"/>
<path d="M1187 3383 c-10 -9 -9 -23 1 -23 5 0 9 7 9 15 0 17 -1 18 -10 8z"/>
<path d="M1410 3370 c20 -13 33 -13 25 0 -3 6 -14 10 -23 10 -15 0 -15 -2 -2
-10z"/>
<path d="M1145 3340 c-3 -6 1 -7 9 -4 18 7 21 14 7 14 -6 0 -13 -4 -16 -10z"/>
<path d="M1349 3308 c-6 -21 -5 -37 2 -32 5 3 7 9 4 14 -3 4 1 11 7 13 10 4
10 6 1 6 -7 1 -13 0 -14 -1z"/>
<path d="M1304 3289 c-4 -7 -3 -9 4 -5 5 3 13 0 15 -6 4 -9 6 -10 6 -1 1 17
-16 25 -25 12z"/>
<path d="M1207 3219 c7 -7 15 -10 18 -7 3 3 -2 9 -12 12 -14 6 -15 5 -6 -5z"/>
<path d="M1234 3199 c-4 -7 -3 -9 4 -5 5 3 13 0 15 -6 4 -9 6 -10 6 -1 1 17
-16 25 -25 12z"/>
<path d="M1150 3121 c0 -6 4 -13 10 -16 6 -3 7 1 4 9 -7 18 -14 21 -14 7z"/>
<path d="M4353 4262 c0 -10 7 -19 14 -19 17 0 17 12 -1 27 -12 9 -15 8 -13 -8z"/>
<path d="M4427 4170 c10 -11 22 -20 27 -20 5 0 1 9 -9 20 -10 11 -22 20 -26
20 -5 0 -1 -9 8 -20z"/>
<path d="M4503 4078 c-11 -19 -13 -39 -1 -32 5 3 7 9 4 12 -3 3 -1 11 5 19 6
7 9 13 6 13 -3 0 -9 -6 -14 -12z"/>
<path d="M4570 3896 c0 -2 7 -7 16 -10 8 -3 12 -2 9 4 -6 10 -25 14 -25 6z"/>
<path d="M4655 3750 c-19 -8 -19 -9 3 -9 12 -1 22 4 22 9 0 6 -1 10 -2 9 -2 0
-12 -4 -23 -9z"/>
<path d="M4726 3583 c-6 -14 -5 -15 5 -6 7 7 10 15 7 18 -3 3 -9 -2 -12 -12z"/>
<path d="M4376 3552 c-3 -5 1 -17 8 -27 12 -17 13 -17 11 3 -2 26 -11 37 -19
24z"/>
<path d="M4806 3357 c1 -12 3 -24 4 -27 4 -9 7 -25 8 -42 1 -10 9 -18 18 -18
14 0 14 1 0 16 -19 18 -21 38 -3 28 6 -4 3 3 -8 16 -17 20 -17 22 -3 17 12 -4
15 -2 12 8 -9 24 -31 25 -28 2z"/>
<path d="M2936 3670 c-61 -39 -215 -81 -305 -84 l-86 -2 3 -39 c2 -22 14 -87
28 -145 66 -281 159 -465 306 -606 89 -86 97 -89 144 -58 59 39 91 72 149 149
65 87 124 197 159 294 36 101 84 295 88 355 l3 49 -84 3 c-94 4 -194 30 -283
75 -66 33 -82 35 -122 9z m101 -42 c27 -13 50 -23 51 -25 2 -1 5 -171 5 -378
l2 -377 -47 -44 c-26 -24 -52 -44 -59 -44 -7 0 -36 21 -65 46 l-54 46 0 371 0
372 53 27 c28 15 55 27 59 27 4 1 29 -9 55 -21z"/>
<path d="M1230 2791 c0 -6 4 -13 10 -16 6 -3 7 1 4 9 -7 18 -14 21 -14 7z"/>
<path d="M1207 2769 c7 -7 15 -10 18 -7 3 3 -2 9 -12 12 -14 6 -15 5 -6 -5z"/>
<path d="M1140 2671 c0 -5 5 -13 10 -16 6 -3 10 -2 10 4 0 5 -4 13 -10 16 -5
3 -10 2 -10 -4z"/>
<path d="M1365 2650 c3 -5 11 -10 16 -10 6 0 7 5 4 10 -3 6 -11 10 -16 10 -6
0 -7 -4 -4 -10z"/>
<path d="M1151 2624 c0 -11 3 -14 6 -6 3 7 2 16 -1 19 -3 4 -6 -2 -5 -13z"/>
<path d="M1185 2549 c-4 -6 -5 -12 -2 -15 2 -3 7 2 10 11 7 17 1 20 -8 4z"/>
<path d="M1524 2479 c0 -13 3 -15 13 -7 7 6 13 12 13 13 0 2 -6 5 -13 8 -7 3
-13 -3 -13 -14z"/>
<path d="M1539 2453 c-13 -16 -12 -17 4 -4 9 7 17 15 17 17 0 8 -8 3 -21 -13z"/>
<path d="M1366 2035 c19 -30 26 -28 17 3 -3 12 -12 22 -19 22 -12 0 -11 -5 2
-25z"/>
<path d="M1425 2031 c-3 -5 -2 -12 3 -15 5 -3 9 1 9 9 0 17 -3 19 -12 6z"/>
<path d="M4822 2874 c-7 -8 -8 -14 -3 -14 10 0 25 19 20 25 -2 1 -10 -3 -17
-11z"/>
<path d="M4766 2827 c3 -10 9 -15 12 -12 3 3 0 11 -7 18 -10 9 -11 8 -5 -6z"/>
<path d="M4805 2820 c-3 -5 1 -10 10 -10 9 0 13 5 10 10 -3 6 -8 10 -10 10 -2
0 -7 -4 -10 -10z"/>
<path d="M4721 2796 c-13 -16 -2 -29 16 -18 7 4 8 13 4 20 -6 10 -10 10 -20
-2z"/>
<path d="M4696 2747 c3 -10 9 -15 12 -12 3 3 0 11 -7 18 -10 9 -11 8 -5 -6z"/>
<path d="M4818 2698 c3 -13 1 -19 -5 -15 -7 5 -9 0 -6 -13 3 -11 9 -17 14 -14
12 7 12 51 0 58 -5 4 -7 -4 -3 -16z"/>
<path d="M4586 2652 c-10 -16 21 -22 34 -6 9 10 9 14 1 14 -6 0 -11 -6 -11
-12 0 -10 -3 -9 -9 1 -5 8 -11 9 -15 3z"/>
<path d="M4550 2620 c-12 -7 -12 -11 -2 -20 6 -5 10 -7 7 -4 -3 4 0 13 6 21
13 15 10 16 -11 3z"/>
<path d="M4808 2613 c7 -3 16 -2 19 1 4 3 -2 6 -13 5 -11 0 -14 -3 -6 -6z"/>
<path d="M4468 2535 c-6 -13 -14 -22 -18 -20 -4 2 -19 -8 -34 -24 -19 -20 -22
-28 -11 -28 8 0 13 3 10 5 -8 8 27 42 36 36 5 -3 12 2 15 10 3 9 9 14 13 12 4
-3 8 4 8 15 2 26 -5 24 -19 -6z"/>
<path d="M4370 2440 c-9 -6 -10 -10 -3 -10 6 0 15 5 18 10 8 12 4 12 -15 0z"/>
<path d="M4384 2389 c-3 -6 -2 -15 3 -20 5 -5 9 -1 10 11 2 22 -2 25 -13 9z"/>
<path d="M4583 2086 c19 -15 24 -41 5 -30 -10 6 -10 4 0 -7 17 -18 15 -34 -2
-20 -10 8 -16 9 -21 1 -4 -6 -3 -10 2 -9 21 4 24 -2 12 -18 -11 -14 -9 -14 9
1 12 11 20 26 18 33 -3 7 -2 13 2 13 4 0 13 10 21 23 13 20 13 21 -1 9 -12
-10 -17 -10 -20 -1 -2 7 -13 13 -24 15 -18 3 -18 2 -1 -10z"/>
<path d="M4405 1791 c-3 -5 -2 -12 3 -15 5 -3 9 1 9 9 0 17 -3 19 -12 6z"/>
<path d="M2182 1813 c-6 -2 -10 -9 -6 -14 3 -5 -3 -9 -14 -9 -26 0 -54 -34
-50 -61 3 -22 19 -30 83 -43 11 -2 40 -9 65 -15 74 -17 77 -16 88 36 6 26 9
50 7 52 -10 9 -35 -23 -35 -44 0 -18 -4 -21 -26 -17 -22 4 -24 8 -18 35 5 25
4 29 -11 24 -9 -4 -19 -7 -21 -7 -2 0 -4 -9 -4 -21 0 -14 -5 -19 -17 -17 -19
4 -21 21 -10 76 7 32 0 38 -31 25z m-12 -68 c0 -8 -4 -15 -9 -15 -13 0 -22 16
-14 24 11 11 23 6 23 -9z"/>
<path d="M2617 1782 c-11 -12 -17 -36 -17 -64 0 -65 -6 -75 -40 -70 -17 2 -27
9 -24 14 3 5 12 7 20 4 24 -9 15 22 -14 52 -23 23 -32 27 -44 18 -9 -6 -26
-18 -37 -26 -26 -18 -27 -27 -3 -33 13 -4 11 -5 -6 -6 -15 -1 -25 7 -32 23 -5
13 -14 27 -19 31 -11 6 -12 0 -15 -70 -1 -34 -5 -41 -29 -49 -24 -9 -31 -7
-42 7 -10 14 -14 15 -23 4 -18 -21 0 -32 49 -32 47 0 79 17 79 41 0 13 40 11
110 -7 19 -5 47 -9 61 -9 26 0 27 2 38 91 7 50 10 93 8 95 -2 2 -11 -4 -20
-14z m-98 -99 c-10 -11 -14 -11 -20 -1 -10 17 -2 28 17 21 11 -4 12 -8 3 -20z"/>
<path d="M2646 1729 c-15 -145 1 -177 25 -49 14 75 10 110 -10 110 -5 0 -11
-28 -15 -61z"/>
<path d="M3712 1762 c3 -12 14 -17 42 -17 22 0 41 -5 43 -11 5 -16 -87 -38
-100 -25 -17 17 -39 13 -64 -11 l-23 -22 -16 23 c-9 12 -27 26 -40 31 -13 5
-24 17 -24 26 0 13 -3 14 -15 4 -8 -7 -15 -18 -15 -25 0 -6 -9 -20 -20 -30
-11 -10 -20 -26 -20 -37 0 -10 -4 -18 -9 -18 -11 0 -21 25 -21 51 0 10 -3 19
-7 19 -14 -1 -43 -27 -43 -39 0 -6 -4 -11 -10 -11 -5 0 -10 -16 -10 -35 0 -32
2 -35 24 -29 32 8 41 -11 14 -30 -28 -20 -16 -33 17 -18 14 7 25 20 25 31 0
32 19 35 46 6 15 -17 32 -25 47 -23 18 2 21 8 19 34 -3 30 -1 32 39 38 25 4
46 3 53 -4 16 -16 44 -12 55 8 12 23 109 48 125 32 13 -13 29 -13 21 1 -4 6 1
16 11 24 18 13 18 14 -1 21 -11 4 -32 17 -47 30 -34 27 -101 31 -96 6z m-144
-80 c2 -7 -3 -12 -12 -12 -9 0 -16 7 -16 16 0 17 22 14 28 -4z m-57 -15 c-13
-13 -26 -3 -16 12 3 6 11 8 17 5 6 -4 6 -10 -1 -17z m169 13 c0 -5 -4 -10 -10
-10 -5 0 -10 5 -10 10 0 6 5 10 10 10 6 0 10 -4 10 -10z"/>
<path d="M3115 1751 c-15 -14 -2 -30 25 -29 17 1 30 5 30 10 0 4 1 11 3 16 2
8 -51 11 -58 3z"/>
<path d="M3170 1705 c-7 -8 -10 -18 -6 -22 3 -3 -4 -11 -17 -17 -17 -9 -23
-22 -25 -55 -3 -37 -1 -42 15 -38 10 3 44 8 76 12 56 6 57 7 56 38 -1 18 -4
43 -8 57 l-7 25 -13 -23 c-7 -12 -9 -32 -6 -43 6 -17 3 -20 -12 -17 -13 2 -19
14 -21 43 -4 48 -14 61 -32 40z m0 -80 c0 -8 -4 -15 -10 -15 -5 0 -10 7 -10
15 0 8 5 15 10 15 6 0 10 -7 10 -15z"/>
<path d="M2828 1666 c-9 -6 -18 -23 -20 -36 -4 -25 -4 -24 -21 8 -10 17 -21
32 -26 32 -13 0 -22 -43 -11 -54 22 -22 11 -56 -22 -71 l-33 -14 40 2 c31 2
42 7 50 25 14 32 75 31 111 -3 15 -14 34 -23 42 -20 7 3 16 5 18 5 2 0 4 7 4
15 0 11 12 15 50 15 l50 0 0 50 c0 28 -4 50 -10 50 -24 0 -58 -24 -67 -48
l-11 -27 -1 33 -1 32 -59 0 c-33 0 -61 4 -63 9 -2 5 -10 4 -20 -3z m112 -60
c0 -14 -4 -28 -10 -31 -5 -3 -10 3 -10 14 0 17 -6 21 -36 21 -21 0 -33 4 -29
10 3 6 24 10 46 10 35 0 39 -3 39 -24z m90 8 c0 -8 -5 -12 -10 -9 -6 4 -8 11
-5 16 9 14 15 11 15 -7z"/>
<path d="M3300 1650 c0 -17 5 -30 10 -30 6 0 10 -13 10 -30 0 -29 -30 -57 -49
-45 -14 8 -63 -14 -56 -25 11 -18 85 0 118 28 30 27 19 111 -18 126 -11 4 -15
-2 -15 -24z"/>
<path d="M3774 1646 c-8 -22 3 -33 18 -18 9 9 9 15 0 24 -9 9 -13 7 -18 -6z"/>
<path d="M2194 1639 c-9 -15 6 -28 36 -31 17 -2 25 2 25 12 0 8 -8 14 -17 14
-10 -1 -18 2 -18 7 0 13 -17 11 -26 -2z"/>
<path d="M2096 1504 c-21 -20 -20 -23 4 -17 11 3 18 9 15 13 -3 5 3 11 12 13
16 4 16 5 1 6 -9 0 -24 -6 -32 -15z"/>
<path d="M2260 1465 c-24 -14 -24 -14 -4 -15 12 0 24 7 28 15 6 18 7 18 -24 0z"/>
<path d="M2330 1449 c0 -5 5 -7 10 -4 6 3 10 8 10 11 0 2 -4 4 -10 4 -5 0 -10
-5 -10 -11z"/>
<path d="M2360 1450 c0 -5 5 -10 10 -10 6 0 10 5 10 10 0 6 -4 10 -10 10 -5 0
-10 -4 -10 -10z"/>
<path d="M1920 1436 c0 -2 7 -7 16 -10 8 -3 12 -2 9 4 -6 10 -25 14 -25 6z"/>
<path d="M2602 1423 c-6 -2 -10 -9 -6 -14 8 -14 21 -11 21 6 0 8 -1 15 -1 14
-1 0 -7 -3 -14 -6z"/>
<path d="M1980 1409 c0 -5 5 -7 10 -4 6 3 10 8 10 11 0 2 -4 4 -10 4 -5 0 -10
-5 -10 -11z"/>
<path d="M2528 1413 c6 -2 18 -2 25 0 6 3 1 5 -13 5 -14 0 -19 -2 -12 -5z"/>
<path d="M2016 1368 c6 -9 54 -6 54 3 0 3 -13 6 -29 5 -16 -1 -27 -4 -25 -8z"/>
<path d="M2770 1245 c-7 -9 -8 -15 -2 -15 5 0 12 7 16 15 3 8 4 15 2 15 -2 0
-9 -7 -16 -15z"/>
<path d="M2803 1175 c0 -8 4 -12 9 -9 5 3 6 10 3 15 -9 13 -12 11 -12 -6z"/>
<path d="M2855 1160 c-7 -11 22 -26 32 -16 4 3 -1 6 -11 6 -9 0 -14 5 -11 10
3 6 4 10 1 10 -3 0 -8 -5 -11 -10z"/>
<path d="M4100 1509 c0 -5 5 -7 10 -4 6 3 10 8 10 11 0 2 -4 4 -10 4 -5 0 -10
-5 -10 -11z"/>
<path d="M3848 1493 c7 -3 16 -2 19 1 4 3 -2 6 -13 5 -11 0 -14 -3 -6 -6z"/>
<path d="M4030 1470 c-9 -6 -10 -10 -3 -10 6 0 15 5 18 10 8 12 4 12 -15 0z"/>
<path d="M3656 1455 c-3 -8 -1 -15 4 -15 13 0 22 18 11 24 -5 3 -11 -1 -15 -9z"/>
<path d="M3360 1416 c0 -2 9 -6 20 -9 11 -3 18 -1 14 4 -5 9 -34 13 -34 5z"/>
<path d="M3410 1416 c0 -2 9 -6 20 -9 11 -3 18 -1 14 4 -5 9 -34 13 -34 5z"/>
<path d="M3468 1413 c7 -3 16 -2 19 1 4 3 -2 6 -13 5 -11 0 -14 -3 -6 -6z"/>
<path d="M3518 1413 c7 -3 16 -2 19 1 4 3 -2 6 -13 5 -11 0 -14 -3 -6 -6z"/>
<path d="M3335 1380 c-4 -6 -11 -7 -17 -4 -7 4 -8 2 -4 -4 10 -16 23 -15 30 3
6 17 0 20 -9 5z"/>
<path d="M3910 1370 c-12 -8 -9 -10 12 -7 15 1 30 6 34 10 11 11 -29 8 -46 -3z"/>
<path d="M3240 1291 c-22 -6 -23 -8 -7 -14 24 -9 24 -9 31 8 3 8 4 15 3 14 -1
-1 -13 -4 -27 -8z"/>
<path d="M3177 1235 c-4 -8 -3 -16 1 -19 4 -3 9 4 9 15 2 23 -3 25 -10 4z"/>
<path d="M3139 1183 c-13 -16 -12 -17 4 -4 9 7 17 15 17 17 0 8 -8 3 -21 -13z"/>
<path d="M3270 1150 c-8 -5 -12 -12 -9 -15 4 -3 12 1 19 10 14 17 11 19 -10 5z"/>
<path d="M3039 1113 c-13 -16 -12 -17 4 -4 9 7 17 15 17 17 0 8 -8 3 -21 -13z"/>
<path d="M4446 988 c4 -13 12 -37 18 -55 l11 -32 39 24 39 24 -48 30 c-58 37
-69 38 -59 9z"/>
<path d="M2046 842 c-10 -17 -48 -123 -44 -126 1 -2 15 -6 31 -10 41 -10 77
30 77 84 0 34 -4 42 -26 50 -31 12 -32 12 -38 2z"/>
<path d="M2848 683 c-38 -44 -54 -116 -43 -199 12 -95 75 -136 130 -84 39 37
57 145 35 219 -20 70 -86 105 -122 64z"/>
</g>
</svg>
